<mxfile host="www.draw.io" modified="2019-10-23T06:38:07.751Z" agent="Mozilla/5.0 (Macintosh; Intel Mac OS X 10.14; rv:69.0) Gecko/20100101 Firefox/69.0" etag="YQfapPS1tBM5fbP8Dz4j" version="12.1.3" type="github" pages="1">
  <diagram id="6a731a19-8d31-9384-78a2-239565b7b9f0" name="Page-1">
    <mxGraphModel dx="946" dy="628" grid="1" gridSize="10" guides="1" tooltips="1" connect="1" arrows="1" fold="1" page="1" pageScale="1" pageWidth="1169" pageHeight="827" background="#ffffff" math="0" shadow="0">
      <root>
        <mxCell id="0"/>
        <mxCell id="1" parent="0"/>
        <mxCell id="aEuhOQQGP-RLHRnwrXuT-1789" value="&lt;div align=&quot;left&quot;&gt;基础服务&lt;/div&gt;" style="rounded=0;whiteSpace=wrap;html=1;shadow=0;labelBackgroundColor=none;strokeColor=#6c8ebf;strokeWidth=3;fillColor=#dae8fc;fontFamily=Helvetica;fontSize=14;align=left;spacing=5;fontStyle=0;arcSize=7;perimeterSpacing=2;" vertex="1" parent="1">
          <mxGeometry x="90" y="332" width="620" height="135" as="geometry"/>
        </mxCell>
        <mxCell id="aEuhOQQGP-RLHRnwrXuT-1784" value="&lt;div align=&quot;left&quot;&gt;关系&lt;/div&gt;" style="rounded=0;whiteSpace=wrap;html=1;shadow=0;labelBackgroundColor=none;strokeColor=#d6b656;strokeWidth=3;fillColor=#fff2cc;fontFamily=Helvetica;fontSize=14;align=left;spacing=5;fontStyle=0;arcSize=7;perimeterSpacing=2;" vertex="1" parent="1">
          <mxGeometry x="90" y="190" width="620" height="140" as="geometry"/>
        </mxCell>
        <mxCell id="1755" value="点赞" style="rounded=0;whiteSpace=wrap;html=1;shadow=0;labelBackgroundColor=none;strokeColor=#d6b656;strokeWidth=3;fillColor=#fff2cc;fontFamily=Helvetica;fontSize=14;align=center;spacing=5;fontStyle=0;arcSize=7;perimeterSpacing=2;" parent="1" vertex="1">
          <mxGeometry x="620" y="230" width="80" height="70" as="geometry"/>
        </mxCell>
        <mxCell id="aEuhOQQGP-RLHRnwrXuT-1781" value="收藏" style="rounded=0;whiteSpace=wrap;html=1;shadow=0;labelBackgroundColor=none;strokeColor=#d6b656;strokeWidth=3;fillColor=#fff2cc;fontFamily=Helvetica;fontSize=14;align=center;spacing=5;fontStyle=0;arcSize=7;perimeterSpacing=2;" vertex="1" parent="1">
          <mxGeometry x="380" y="230" width="80" height="70" as="geometry"/>
        </mxCell>
        <mxCell id="aEuhOQQGP-RLHRnwrXuT-1782" value="分享" style="rounded=0;whiteSpace=wrap;html=1;shadow=0;labelBackgroundColor=none;strokeColor=#d6b656;strokeWidth=3;fillColor=#fff2cc;fontFamily=Helvetica;fontSize=14;align=center;spacing=5;fontStyle=0;arcSize=7;perimeterSpacing=2;" vertex="1" parent="1">
          <mxGeometry x="500" y="230" width="80" height="70" as="geometry"/>
        </mxCell>
        <mxCell id="aEuhOQQGP-RLHRnwrXuT-1783" value="关注" style="rounded=0;whiteSpace=wrap;html=1;shadow=0;labelBackgroundColor=none;strokeColor=#d6b656;strokeWidth=3;fillColor=#fff2cc;fontFamily=Helvetica;fontSize=14;align=center;spacing=5;fontStyle=0;arcSize=7;perimeterSpacing=2;" vertex="1" parent="1">
          <mxGeometry x="270" y="230" width="80" height="70" as="geometry"/>
        </mxCell>
        <mxCell id="aEuhOQQGP-RLHRnwrXuT-1785" value="笔记" style="rounded=0;whiteSpace=wrap;html=1;shadow=0;labelBackgroundColor=none;strokeColor=#6c8ebf;strokeWidth=3;fillColor=#dae8fc;fontFamily=Helvetica;fontSize=14;align=center;spacing=5;fontStyle=0;arcSize=7;perimeterSpacing=2;" vertex="1" parent="1">
          <mxGeometry x="260" y="365" width="100" height="70" as="geometry"/>
        </mxCell>
        <mxCell id="aEuhOQQGP-RLHRnwrXuT-1786" value="评论" style="rounded=0;whiteSpace=wrap;html=1;shadow=0;labelBackgroundColor=none;strokeColor=#d6b656;strokeWidth=3;fillColor=#fff2cc;fontFamily=Helvetica;fontSize=14;align=center;spacing=5;fontStyle=0;arcSize=7;perimeterSpacing=2;" vertex="1" parent="1">
          <mxGeometry x="160" y="230" width="80" height="70" as="geometry"/>
        </mxCell>
        <mxCell id="aEuhOQQGP-RLHRnwrXuT-1788" value="用户" style="rounded=0;whiteSpace=wrap;html=1;shadow=0;labelBackgroundColor=none;strokeColor=#6c8ebf;strokeWidth=3;fillColor=#dae8fc;fontFamily=Helvetica;fontSize=14;align=center;spacing=5;fontStyle=0;arcSize=7;perimeterSpacing=2;" vertex="1" parent="1">
          <mxGeometry x="460" y="365" width="100" height="70" as="geometry"/>
        </mxCell>
        <mxCell id="aEuhOQQGP-RLHRnwrXuT-1790" value="网关 " style="rounded=0;whiteSpace=wrap;html=1;shadow=0;labelBackgroundColor=none;strokeColor=#666666;strokeWidth=3;fillColor=#f5f5f5;fontFamily=Helvetica;fontSize=14;align=center;spacing=5;fontStyle=0;arcSize=7;perimeterSpacing=2;fontColor=#333333;" vertex="1" parent="1">
          <mxGeometry x="90" y="120" width="620" height="70" as="geometry"/>
        </mxCell>
        <mxCell id="aEuhOQQGP-RLHRnwrXuT-1791" value="&lt;div align=&quot;left&quot;&gt;中间件&lt;/div&gt;" style="rounded=0;whiteSpace=wrap;html=1;shadow=0;labelBackgroundColor=none;strokeColor=#b85450;strokeWidth=3;fillColor=#f8cecc;fontFamily=Helvetica;fontSize=14;align=left;spacing=5;fontStyle=0;arcSize=7;perimeterSpacing=2;" vertex="1" parent="1">
          <mxGeometry x="90" y="467" width="620" height="140" as="geometry"/>
        </mxCell>
        <mxCell id="aEuhOQQGP-RLHRnwrXuT-1792" value="APM" style="rounded=0;whiteSpace=wrap;html=1;shadow=0;labelBackgroundColor=none;strokeColor=#b85450;strokeWidth=3;fillColor=#f8cecc;fontFamily=Helvetica;fontSize=14;align=center;spacing=5;fontStyle=0;arcSize=7;perimeterSpacing=2;" vertex="1" parent="1">
          <mxGeometry x="180" y="510" width="80" height="70" as="geometry"/>
        </mxCell>
        <mxCell id="aEuhOQQGP-RLHRnwrXuT-1793" value="MyHub" style="rounded=0;whiteSpace=wrap;html=1;shadow=0;labelBackgroundColor=none;strokeColor=#b85450;strokeWidth=3;fillColor=#f8cecc;fontFamily=Helvetica;fontSize=14;align=center;spacing=5;fontStyle=0;arcSize=7;perimeterSpacing=2;" vertex="1" parent="1">
          <mxGeometry x="450" y="510" width="80" height="70" as="geometry"/>
        </mxCell>
        <mxCell id="aEuhOQQGP-RLHRnwrXuT-1794" value="Covus" style="rounded=0;whiteSpace=wrap;html=1;shadow=0;labelBackgroundColor=none;strokeColor=#b85450;strokeWidth=3;fillColor=#f8cecc;fontFamily=Helvetica;fontSize=14;align=center;spacing=5;fontStyle=0;arcSize=7;perimeterSpacing=2;" vertex="1" parent="1">
          <mxGeometry x="320" y="510" width="80" height="70" as="geometry"/>
        </mxCell>
        <mxCell id="aEuhOQQGP-RLHRnwrXuT-1795" value="TAO" style="rounded=0;whiteSpace=wrap;html=1;shadow=0;labelBackgroundColor=none;strokeColor=#b85450;strokeWidth=3;fillColor=#f8cecc;fontFamily=Helvetica;fontSize=14;align=center;spacing=5;fontStyle=0;arcSize=7;perimeterSpacing=2;" vertex="1" parent="1">
          <mxGeometry x="580" y="510" width="80" height="70" as="geometry"/>
        </mxCell>
        <mxCell id="aEuhOQQGP-RLHRnwrXuT-1796" value="&lt;div align=&quot;left&quot;&gt;数据层&lt;/div&gt;" style="rounded=0;whiteSpace=wrap;html=1;shadow=0;labelBackgroundColor=none;strokeColor=#82b366;strokeWidth=3;fillColor=#d5e8d4;fontFamily=Helvetica;fontSize=14;align=left;spacing=5;fontStyle=0;arcSize=7;perimeterSpacing=2;" vertex="1" parent="1">
          <mxGeometry x="90" y="607" width="620" height="140" as="geometry"/>
        </mxCell>
        <mxCell id="aEuhOQQGP-RLHRnwrXuT-1798" value="MySQL" style="rounded=0;whiteSpace=wrap;html=1;shadow=0;labelBackgroundColor=none;strokeColor=#82b366;strokeWidth=3;fillColor=#d5e8d4;fontFamily=Helvetica;fontSize=14;align=center;spacing=5;fontStyle=0;arcSize=7;perimeterSpacing=2;" vertex="1" parent="1">
          <mxGeometry x="450" y="642" width="80" height="70" as="geometry"/>
        </mxCell>
        <mxCell id="aEuhOQQGP-RLHRnwrXuT-1799" value="MongoDB" style="rounded=0;whiteSpace=wrap;html=1;shadow=0;labelBackgroundColor=none;strokeColor=#82b366;strokeWidth=3;fillColor=#d5e8d4;fontFamily=Helvetica;fontSize=14;align=center;spacing=5;fontStyle=0;arcSize=7;perimeterSpacing=2;" vertex="1" parent="1">
          <mxGeometry x="580" y="642" width="80" height="70" as="geometry"/>
        </mxCell>
        <mxCell id="aEuhOQQGP-RLHRnwrXuT-1800" value="Redis" style="rounded=0;whiteSpace=wrap;html=1;shadow=0;labelBackgroundColor=none;strokeColor=#82b366;strokeWidth=3;fillColor=#d5e8d4;fontFamily=Helvetica;fontSize=14;align=center;spacing=5;fontStyle=0;arcSize=7;perimeterSpacing=2;" vertex="1" parent="1">
          <mxGeometry x="320" y="642" width="80" height="70" as="geometry"/>
        </mxCell>
        <mxCell id="aEuhOQQGP-RLHRnwrXuT-1801" value="InfluxDB" style="rounded=0;whiteSpace=wrap;html=1;shadow=0;labelBackgroundColor=none;strokeColor=#82b366;strokeWidth=3;fillColor=#d5e8d4;fontFamily=Helvetica;fontSize=14;align=center;spacing=5;fontStyle=0;arcSize=7;perimeterSpacing=2;" vertex="1" parent="1">
          <mxGeometry x="180" y="642" width="80" height="70" as="geometry"/>
        </mxCell>
      </root>
    </mxGraphModel>
  </diagram>
</mxfile>
